SplineFontDB: 3.2
FontName: Game-Boy
FullName: Game-Boy
FamilyName: Game-Boy
Weight: Regular
Copyright: Copyright (c) 2022, Semipedia
UComments: "2022-6-16: Created with FontForge (http://fontforge.org)"
Version: 001.000
ItalicAngle: 0
UnderlinePosition: -8
UnderlineWidth: 4
Ascent: 80
Descent: 0
InvalidEm: 0
LayerCount: 2
Layer: 0 0 "Back" 1
Layer: 1 0 "Fore" 0
XUID: [1021 475 -824446587 14484072]
FSType: 0
OS2Version: 0
OS2_WeightWidthSlopeOnly: 0
OS2_UseTypoMetrics: 1
CreationTime: 1655430411
ModificationTime: 1673240211
PfmFamily: 17
TTFWeight: 400
TTFWidth: 5
LineGap: 7
VLineGap: 0
OS2TypoAscent: 0
OS2TypoAOffset: 1
OS2TypoDescent: 0
OS2TypoDOffset: 1
OS2TypoLinegap: 7
OS2WinAscent: 0
OS2WinAOffset: 1
OS2WinDescent: 0
OS2WinDOffset: 1
HheadAscent: 0
HheadAOffset: 1
HheadDescent: 0
HheadDOffset: 1
OS2Vendor: 'PfEd'
MarkAttachClasses: 1
DEI: 91125
Encoding: ISO8859-1
UnicodeInterp: none
NameList: AGL For New Fonts
DisplaySize: -48
AntiAlias: 1
FitToEm: 0
WinInfo: 0 29 10
BeginPrivate: 0
EndPrivate
BeginChars: 257 41

StartChar: A
Encoding: 65 65 0
Width: 80
Flags: H
LayerCount: 2
Fore
SplineSet
66.6669921875 66.6669921875 m 1
 80 66.6669921875 l 1
 80 0 l 1
 40 0 l 1
 40 26.6669921875 l 1
 13.3330078125 26.6669921875 l 1
 13.3330078125 0 l 1
 0 0 l 1
 0 66.6669921875 l 1
 13.3330078125 66.6669921875 l 1
 13.3330078125 40 l 1
 40 40 l 1
 40 66.6669921875 l 1
 13.3330078125 66.6669921875 l 1
 13.3330078125 80 l 1
 66.6669921875 80 l 1
 66.6669921875 66.6669921875 l 1
EndSplineSet
EndChar

StartChar: zero
Encoding: 48 48 1
Width: 80
Flags: HW
LayerCount: 2
Fore
SplineSet
66.6669921875 66.6669921875 m 1
 80 66.6669921875 l 1
 80 13.3330078125 l 1
 66.6669921875 13.3330078125 l 1
 66.6669921875 0 l 1
 13.3330078125 0 l 1
 13.3330078125 13.3330078125 l 1
 0 13.3330078125 l 1
 0 66.6669921875 l 1
 13.3330078125 66.6669921875 l 1
 13.3330078125 80 l 1
 66.6669921875 80 l 1
 66.6669921875 66.6669921875 l 1
26.6669921875 13.3330078125 m 1
 53.3330078125 13.3330078125 l 1
 53.3330078125 66.6669921875 l 1
 26.6669921875 66.6669921875 l 1
 26.6669921875 13.3330078125 l 1
EndSplineSet
EndChar

StartChar: one
Encoding: 49 49 2
Width: 80
Flags: H
LayerCount: 2
Fore
SplineSet
53.3330078125 80 m 1
 53.3330078125 13.3330078125 l 1
 66.6669921875 13.3330078125 l 1
 66.6669921875 0 l 1
 13.3330078125 0 l 1
 13.3330078125 13.3330078125 l 1
 26.6669921875 13.3330078125 l 1
 26.6669921875 53.3330078125 l 1
 13.3330078125 53.3330078125 l 1
 13.3330078125 66.6669921875 l 1
 26.6669921875 66.6669921875 l 1
 26.6669921875 80 l 1
 53.3330078125 80 l 1
EndSplineSet
EndChar

StartChar: two
Encoding: 50 50 3
Width: 80
Flags: H
LayerCount: 2
Fore
SplineSet
66.6669921875 26.6669921875 m 1
 40 26.6669921875 l 1
 40 13.3330078125 l 1
 80 13.3330078125 l 1
 80 0 l 1
 0 0 l 1
 0 26.6669921875 l 1
 13.3330078125 26.6669921875 l 1
 13.3330078125 40 l 1
 40 40 l 1
 40 66.6669921875 l 1
 13.3330078125 66.6669921875 l 1
 13.3330078125 80 l 1
 66.6669921875 80 l 1
 66.6669921875 66.6669921875 l 1
 80 66.6669921875 l 1
 80 40 l 1
 66.6669921875 40 l 1
 66.6669921875 26.6669921875 l 1
0 53.3330078125 m 1
 0 66.6669921875 l 1
 13.3330078125 66.6669921875 l 1
 13.3330078125 53.3330078125 l 1
 0 53.3330078125 l 1
EndSplineSet
EndChar

StartChar: three
Encoding: 51 51 4
Width: 80
Flags: H
LayerCount: 2
Fore
SplineSet
66.6669921875 80 m 1
 66.6669921875 66.6669921875 l 1
 80 66.6669921875 l 1
 80 53.3330078125 l 1
 66.6669921875 53.3330078125 l 1
 66.6669921875 40 l 1
 80 40 l 1
 80 13.3330078125 l 1
 66.6669921875 13.3330078125 l 1
 66.6669921875 0 l 1
 0 0 l 1
 0 13.3330078125 l 1
 40 13.3330078125 l 1
 40 40 l 1
 13.3330078125 40 l 1
 13.3330078125 53.3330078125 l 1
 40 53.3330078125 l 1
 40 66.6669921875 l 1
 0 66.6669921875 l 1
 0 80 l 1
 66.6669921875 80 l 1
EndSplineSet
EndChar

StartChar: four
Encoding: 52 52 5
Width: 80
Flags: H
LayerCount: 2
Fore
SplineSet
66.6669921875 80 m 1
 66.6669921875 26.6669921875 l 1
 80 26.6669921875 l 1
 80 13.3330078125 l 1
 66.6669921875 13.3330078125 l 1
 66.6669921875 0 l 1
 40 0 l 1
 40 13.3330078125 l 1
 0 13.3330078125 l 1
 0 66.6669921875 l 1
 13.3330078125 66.6669921875 l 1
 13.3330078125 80 l 1
 66.6669921875 80 l 1
13.3330078125 26.6669921875 m 1
 40 26.6669921875 l 1
 40 66.6669921875 l 1
 26.6669921875 66.6669921875 l 1
 26.6669921875 53.3330078125 l 1
 13.3330078125 53.3330078125 l 1
 13.3330078125 26.6669921875 l 1
EndSplineSet
EndChar

StartChar: five
Encoding: 53 53 6
Width: 80
Flags: H
LayerCount: 2
Fore
SplineSet
66.6669921875 40 m 1
 80 40 l 1
 80 13.3330078125 l 1
 66.6669921875 13.3330078125 l 1
 66.6669921875 0 l 1
 13.3330078125 0 l 1
 13.3330078125 13.3330078125 l 1
 40 13.3330078125 l 1
 40 40 l 1
 0 40 l 1
 0 80 l 1
 66.6669921875 80 l 1
 66.6669921875 66.6669921875 l 1
 26.6669921875 66.6669921875 l 1
 26.6669921875 53.3330078125 l 1
 66.6669921875 53.3330078125 l 1
 66.6669921875 40 l 1
0 13.3330078125 m 1
 0 26.6669921875 l 1
 13.3330078125 26.6669921875 l 1
 13.3330078125 13.3330078125 l 1
 0 13.3330078125 l 1
EndSplineSet
EndChar

StartChar: six
Encoding: 54 54 7
Width: 80
Flags: H
LayerCount: 2
Fore
SplineSet
66.6669921875 53.3330078125 m 1
 66.6669921875 40 l 1
 80 40 l 1
 80 13.3330078125 l 1
 66.6669921875 13.3330078125 l 1
 66.6669921875 0 l 1
 13.3330078125 0 l 1
 13.3330078125 13.3330078125 l 1
 0 13.3330078125 l 1
 0 66.6669921875 l 1
 13.3330078125 66.6669921875 l 1
 13.3330078125 80 l 1
 66.6669921875 80 l 1
 66.6669921875 66.6669921875 l 1
 26.6669921875 66.6669921875 l 1
 26.6669921875 53.3330078125 l 1
 66.6669921875 53.3330078125 l 1
53.3330078125 13.3330078125 m 1
 53.3330078125 40 l 1
 26.6669921875 40 l 1
 26.6669921875 13.3330078125 l 1
 53.3330078125 13.3330078125 l 1
EndSplineSet
EndChar

StartChar: seven
Encoding: 55 55 8
Width: 80
Flags: H
LayerCount: 2
Fore
SplineSet
0 80 m 1
 80 80 l 1
 80 53.3330078125 l 1
 66.6669921875 53.3330078125 l 1
 66.6669921875 40 l 1
 53.3330078125 40 l 1
 53.3330078125 0 l 1
 13.3330078125 0 l 1
 13.3330078125 26.6669921875 l 1
 26.6669921875 26.6669921875 l 1
 26.6669921875 40 l 1
 40 40 l 1
 40 53.3330078125 l 1
 53.3330078125 53.3330078125 l 1
 53.3330078125 66.6669921875 l 1
 0 66.6669921875 l 1
 0 80 l 1
EndSplineSet
EndChar

StartChar: eight
Encoding: 56 56 9
Width: 80
Flags: H
LayerCount: 2
Fore
SplineSet
80 53.3330078125 m 1
 66.6669921875 53.3330078125 l 1
 66.6669921875 40 l 1
 80 40 l 1
 80 13.3330078125 l 1
 66.6669921875 13.3330078125 l 1
 66.6669921875 0 l 1
 13.3330078125 0 l 1
 13.3330078125 13.3330078125 l 1
 40 13.3330078125 l 1
 40 40 l 1
 13.3330078125 40 l 1
 13.3330078125 53.3330078125 l 1
 40 53.3330078125 l 1
 40 66.6669921875 l 1
 13.3330078125 66.6669921875 l 1
 13.3330078125 80 l 1
 66.6669921875 80 l 1
 66.6669921875 66.6669921875 l 1
 80 66.6669921875 l 1
 80 53.3330078125 l 1
0 53.3330078125 m 1
 0 66.6669921875 l 1
 13.3330078125 66.6669921875 l 1
 13.3330078125 53.3330078125 l 1
 0 53.3330078125 l 1
0 13.3330078125 m 1
 0 40 l 1
 13.3330078125 40 l 1
 13.3330078125 13.3330078125 l 1
 0 13.3330078125 l 1
EndSplineSet
EndChar

StartChar: nine
Encoding: 57 57 10
Width: 80
Flags: H
LayerCount: 2
Fore
SplineSet
66.6669921875 66.6669921875 m 1
 80 66.6669921875 l 1
 80 13.3330078125 l 1
 66.6669921875 13.3330078125 l 1
 66.6669921875 0 l 1
 13.3330078125 0 l 1
 13.3330078125 13.3330078125 l 1
 40 13.3330078125 l 1
 40 26.6669921875 l 1
 13.3330078125 26.6669921875 l 1
 13.3330078125 40 l 1
 40 40 l 1
 40 66.6669921875 l 1
 13.3330078125 66.6669921875 l 1
 13.3330078125 80 l 1
 66.6669921875 80 l 1
 66.6669921875 66.6669921875 l 1
0 40 m 1
 0 66.6669921875 l 1
 13.3330078125 66.6669921875 l 1
 13.3330078125 40 l 1
 0 40 l 1
EndSplineSet
EndChar

StartChar: B
Encoding: 66 66 11
Width: 80
Flags: H
LayerCount: 2
Fore
SplineSet
80 53.3330078125 m 1
 66.6669921875 53.3330078125 l 1
 66.6669921875 40 l 1
 80 40 l 1
 80 13.3330078125 l 1
 66.6669921875 13.3330078125 l 1
 66.6669921875 0 l 1
 0 0 l 1
 0 80 l 1
 66.6669921875 80 l 1
 66.6669921875 66.6669921875 l 1
 80 66.6669921875 l 1
 80 53.3330078125 l 1
53.3330078125 13.3330078125 m 1
 53.3330078125 40 l 1
 26.6669921875 40 l 1
 26.6669921875 13.3330078125 l 1
 53.3330078125 13.3330078125 l 1
26.6669921875 53.3330078125 m 1
 53.3330078125 53.3330078125 l 1
 53.3330078125 66.6669921875 l 1
 26.6669921875 66.6669921875 l 1
 26.6669921875 53.3330078125 l 1
EndSplineSet
EndChar

StartChar: C
Encoding: 67 67 12
Width: 80
Flags: H
LayerCount: 2
Fore
SplineSet
80 53.3330078125 m 1
 53.3330078125 53.3330078125 l 1
 53.3330078125 66.6669921875 l 1
 26.6669921875 66.6669921875 l 1
 26.6669921875 13.3330078125 l 1
 53.3330078125 13.3330078125 l 1
 53.3330078125 26.6669921875 l 1
 80 26.6669921875 l 1
 80 13.3330078125 l 1
 66.6669921875 13.3330078125 l 1
 66.6669921875 0 l 1
 13.3330078125 0 l 1
 13.3330078125 13.3330078125 l 1
 0 13.3330078125 l 1
 0 66.6669921875 l 1
 13.3330078125 66.6669921875 l 1
 13.3330078125 80 l 1
 66.6669921875 80 l 1
 66.6669921875 66.6669921875 l 1
 80 66.6669921875 l 1
 80 53.3330078125 l 1
EndSplineSet
EndChar

StartChar: D
Encoding: 68 68 13
Width: 80
Flags: H
LayerCount: 2
Fore
SplineSet
66.6669921875 66.6669921875 m 1
 80 66.6669921875 l 1
 80 13.3330078125 l 1
 66.6669921875 13.3330078125 l 1
 66.6669921875 0 l 1
 0 0 l 1
 0 80 l 1
 66.6669921875 80 l 1
 66.6669921875 66.6669921875 l 1
13.3330078125 13.3330078125 m 1
 40 13.3330078125 l 1
 40 66.6669921875 l 1
 13.3330078125 66.6669921875 l 1
 13.3330078125 13.3330078125 l 1
EndSplineSet
EndChar

StartChar: E
Encoding: 69 69 14
Width: 80
Flags: H
LayerCount: 2
Fore
SplineSet
80 66.6669921875 m 1
 26.6669921875 66.6669921875 l 1
 26.6669921875 53.3330078125 l 1
 66.6669921875 53.3330078125 l 1
 66.6669921875 40 l 1
 26.6669921875 40 l 1
 26.6669921875 13.3330078125 l 1
 80 13.3330078125 l 1
 80 0 l 1
 0 0 l 1
 0 80 l 1
 80 80 l 1
 80 66.6669921875 l 1
EndSplineSet
EndChar

StartChar: F
Encoding: 70 70 15
Width: 80
Flags: H
LayerCount: 2
Fore
SplineSet
0 80 m 1
 80 80 l 1
 80 66.6669921875 l 1
 26.6669921875 66.6669921875 l 1
 26.6669921875 40 l 1
 66.6669921875 40 l 1
 66.6669921875 26.6669921875 l 1
 26.6669921875 26.6669921875 l 1
 26.6669921875 0 l 1
 0 0 l 1
 0 80 l 1
EndSplineSet
EndChar

StartChar: G
Encoding: 71 71 16
Width: 80
Flags: H
LayerCount: 2
Fore
SplineSet
66.6669921875 80 m 1
 66.6669921875 66.6669921875 l 1
 80 66.6669921875 l 1
 80 53.3330078125 l 1
 53.3330078125 53.3330078125 l 1
 53.3330078125 66.6669921875 l 1
 26.6669921875 66.6669921875 l 1
 26.6669921875 13.3330078125 l 1
 53.3330078125 13.3330078125 l 1
 53.3330078125 26.6669921875 l 1
 40 26.6669921875 l 1
 40 40 l 1
 80 40 l 1
 80 0 l 1
 13.3330078125 0 l 1
 13.3330078125 13.3330078125 l 1
 0 13.3330078125 l 1
 0 66.6669921875 l 1
 13.3330078125 66.6669921875 l 1
 13.3330078125 80 l 1
 66.6669921875 80 l 1
EndSplineSet
EndChar

StartChar: H
Encoding: 72 72 17
Width: 80
Flags: H
LayerCount: 2
Fore
SplineSet
53.3330078125 80 m 1
 80 80 l 1
 80 0 l 1
 53.3330078125 0 l 1
 53.3330078125 40 l 1
 13.3330078125 40 l 1
 13.3330078125 0 l 1
 0 0 l 1
 0 80 l 1
 13.3330078125 80 l 1
 13.3330078125 53.3330078125 l 1
 53.3330078125 53.3330078125 l 1
 53.3330078125 80 l 1
EndSplineSet
EndChar

StartChar: I
Encoding: 73 73 18
Width: 80
Flags: H
LayerCount: 2
Fore
SplineSet
13.3330078125 80 m 1
 66.6669921875 80 l 1
 66.6669921875 66.6669921875 l 1
 53.3330078125 66.6669921875 l 1
 53.3330078125 13.3330078125 l 1
 66.6669921875 13.3330078125 l 1
 66.6669921875 0 l 1
 13.3330078125 0 l 1
 13.3330078125 13.3330078125 l 1
 26.6669921875 13.3330078125 l 1
 26.6669921875 66.6669921875 l 1
 13.3330078125 66.6669921875 l 1
 13.3330078125 80 l 1
EndSplineSet
EndChar

StartChar: J
Encoding: 74 74 19
Width: 80
Flags: H
LayerCount: 2
Fore
SplineSet
26.6669921875 80 m 1
 80 80 l 1
 80 66.6669921875 l 1
 66.6669921875 66.6669921875 l 1
 66.6669921875 13.3330078125 l 1
 53.3330078125 13.3330078125 l 1
 53.3330078125 0 l 1
 13.3330078125 0 l 1
 13.3330078125 13.3330078125 l 1
 0 13.3330078125 l 1
 0 40 l 1
 26.6669921875 40 l 1
 26.6669921875 13.3330078125 l 1
 40 13.3330078125 l 1
 40 66.6669921875 l 1
 26.6669921875 66.6669921875 l 1
 26.6669921875 80 l 1
EndSplineSet
EndChar

StartChar: K
Encoding: 75 75 20
Width: 80
Flags: H
LayerCount: 2
Fore
SplineSet
53.3330078125 80 m 1
 80 80 l 1
 80 66.6669921875 l 1
 66.6669921875 66.6669921875 l 1
 66.6669921875 53.3330078125 l 1
 53.3330078125 53.3330078125 l 1
 53.3330078125 26.6669921875 l 1
 66.6669921875 26.6669921875 l 1
 66.6669921875 13.3330078125 l 1
 80 13.3330078125 l 1
 80 0 l 1
 53.3330078125 0 l 1
 53.3330078125 13.3330078125 l 1
 40 13.3330078125 l 1
 40 26.6669921875 l 1
 26.6669921875 26.6669921875 l 1
 26.6669921875 0 l 1
 0 0 l 1
 0 80 l 1
 26.6669921875 80 l 1
 26.6669921875 53.3330078125 l 1
 40 53.3330078125 l 1
 40 66.6669921875 l 1
 53.3330078125 66.6669921875 l 1
 53.3330078125 80 l 1
EndSplineSet
EndChar

StartChar: L
Encoding: 76 76 21
Width: 80
Flags: H
LayerCount: 2
Fore
SplineSet
26.6669921875 13.3330078125 m 1
 80 13.3330078125 l 1
 80 0 l 1
 0 0 l 1
 0 80 l 1
 26.6669921875 80 l 1
 26.6669921875 13.3330078125 l 1
EndSplineSet
EndChar

StartChar: M
Encoding: 77 77 22
Width: 80
Flags: H
LayerCount: 2
Fore
SplineSet
53.3330078125 80 m 1
 80 80 l 1
 80 0 l 1
 53.3330078125 0 l 1
 53.3330078125 40 l 1
 40 40 l 1
 40 26.6669921875 l 1
 26.6669921875 26.6669921875 l 1
 26.6669921875 40 l 1
 13.3330078125 40 l 1
 13.3330078125 0 l 1
 0 0 l 1
 0 80 l 1
 13.3330078125 80 l 1
 13.3330078125 66.6669921875 l 1
 26.6669921875 66.6669921875 l 1
 26.6669921875 53.3330078125 l 1
 40 53.3330078125 l 1
 40 66.6669921875 l 1
 53.3330078125 66.6669921875 l 1
 53.3330078125 80 l 1
EndSplineSet
EndChar

StartChar: N
Encoding: 78 78 23
Width: 80
Flags: H
LayerCount: 2
Fore
SplineSet
53.3330078125 80 m 1
 80 80 l 1
 80 0 l 1
 53.3330078125 0 l 1
 53.3330078125 13.3330078125 l 1
 40 13.3330078125 l 1
 40 26.6669921875 l 1
 26.6669921875 26.6669921875 l 1
 26.6669921875 40 l 1
 13.3330078125 40 l 1
 13.3330078125 0 l 1
 0 0 l 1
 0 80 l 1
 13.3330078125 80 l 1
 13.3330078125 66.6669921875 l 1
 26.6669921875 66.6669921875 l 1
 26.6669921875 53.3330078125 l 1
 40 53.3330078125 l 1
 40 40 l 1
 53.3330078125 40 l 1
 53.3330078125 80 l 1
EndSplineSet
EndChar

StartChar: O
Encoding: 79 79 24
Width: 80
Flags: H
LayerCount: 2
Fore
SplineSet
66.6669921875 80 m 1
 66.6669921875 66.6669921875 l 1
 80 66.6669921875 l 1
 80 13.3330078125 l 1
 66.6669921875 13.3330078125 l 1
 66.6669921875 0 l 1
 13.3330078125 0 l 1
 13.3330078125 13.3330078125 l 1
 0 13.3330078125 l 1
 0 66.6669921875 l 1
 13.3330078125 66.6669921875 l 1
 13.3330078125 80 l 1
 66.6669921875 80 l 1
53.3330078125 13.3330078125 m 1
 53.3330078125 66.6669921875 l 1
 26.6669921875 66.6669921875 l 1
 26.6669921875 13.3330078125 l 1
 53.3330078125 13.3330078125 l 1
EndSplineSet
EndChar

StartChar: P
Encoding: 80 80 25
Width: 80
Flags: H
LayerCount: 2
Fore
SplineSet
66.6669921875 80 m 1
 66.6669921875 66.6669921875 l 1
 80 66.6669921875 l 1
 80 40 l 1
 66.6669921875 40 l 1
 66.6669921875 26.6669921875 l 1
 26.6669921875 26.6669921875 l 1
 26.6669921875 0 l 1
 0 0 l 1
 0 80 l 1
 66.6669921875 80 l 1
53.3330078125 40 m 1
 53.3330078125 66.6669921875 l 1
 26.6669921875 66.6669921875 l 1
 26.6669921875 40 l 1
 53.3330078125 40 l 1
EndSplineSet
EndChar

StartChar: Q
Encoding: 81 81 26
Width: 80
Flags: H
LayerCount: 2
Fore
SplineSet
66.6669921875 26.6669921875 m 1
 66.6669921875 66.6669921875 l 1
 80 66.6669921875 l 1
 80 26.6669921875 l 1
 66.6669921875 26.6669921875 l 1
40 26.6669921875 m 1
 40 40 l 1
 53.3330078125 40 l 1
 53.3330078125 26.6669921875 l 1
 40 26.6669921875 l 1
53.3330078125 13.3330078125 m 1
 53.3330078125 26.6669921875 l 1
 66.6669921875 26.6669921875 l 1
 66.6669921875 13.3330078125 l 1
 53.3330078125 13.3330078125 l 1
66.6669921875 0 m 1
 66.6669921875 13.3330078125 l 1
 80 13.3330078125 l 1
 80 0 l 1
 66.6669921875 0 l 1
26.6669921875 66.6669921875 m 1
 26.6669921875 13.3330078125 l 1
 53.3330078125 13.3330078125 l 1
 53.3330078125 0 l 1
 13.3330078125 0 l 1
 13.3330078125 13.3330078125 l 1
 0 13.3330078125 l 1
 0 66.6669921875 l 1
 13.3330078125 66.6669921875 l 1
 13.3330078125 80 l 1
 66.6669921875 80 l 1
 66.6669921875 66.6669921875 l 1
 26.6669921875 66.6669921875 l 1
EndSplineSet
EndChar

StartChar: R
Encoding: 82 82 27
Width: 80
Flags: H
LayerCount: 2
Fore
SplineSet
66.6669921875 66.6669921875 m 1
 80 66.6669921875 l 1
 80 40 l 1
 66.6669921875 40 l 1
 66.6669921875 26.6669921875 l 1
 53.3330078125 26.6669921875 l 1
 53.3330078125 13.3330078125 l 1
 40 13.3330078125 l 1
 40 26.6669921875 l 1
 26.6669921875 26.6669921875 l 1
 26.6669921875 0 l 1
 0 0 l 1
 0 80 l 1
 66.6669921875 80 l 1
 66.6669921875 66.6669921875 l 1
53.3330078125 40 m 1
 53.3330078125 66.6669921875 l 1
 26.6669921875 66.6669921875 l 1
 26.6669921875 40 l 1
 53.3330078125 40 l 1
53.3330078125 0 m 1
 53.3330078125 13.3330078125 l 1
 80 13.3330078125 l 1
 80 0 l 1
 53.3330078125 0 l 1
EndSplineSet
EndChar

StartChar: S
Encoding: 83 83 28
Width: 80
Flags: H
LayerCount: 2
Fore
SplineSet
66.6669921875 40 m 1
 80 40 l 1
 80 13.3330078125 l 1
 66.6669921875 13.3330078125 l 1
 66.6669921875 0 l 1
 13.3330078125 0 l 1
 13.3330078125 13.3330078125 l 1
 40 13.3330078125 l 1
 40 40 l 1
 13.3330078125 40 l 1
 13.3330078125 53.3330078125 l 1
 0 53.3330078125 l 1
 0 66.6669921875 l 1
 13.3330078125 66.6669921875 l 1
 13.3330078125 80 l 1
 66.6669921875 80 l 1
 66.6669921875 66.6669921875 l 1
 26.6669921875 66.6669921875 l 1
 26.6669921875 53.3330078125 l 1
 66.6669921875 53.3330078125 l 1
 66.6669921875 40 l 1
0 13.3330078125 m 1
 0 26.6669921875 l 1
 13.3330078125 26.6669921875 l 1
 13.3330078125 13.3330078125 l 1
 0 13.3330078125 l 1
EndSplineSet
EndChar

StartChar: T
Encoding: 84 84 29
Width: 80
Flags: H
LayerCount: 2
Fore
SplineSet
0 80 m 1
 80 80 l 1
 80 66.6669921875 l 1
 53.3330078125 66.6669921875 l 1
 53.3330078125 0 l 1
 26.6669921875 0 l 1
 26.6669921875 66.6669921875 l 1
 0 66.6669921875 l 1
 0 80 l 1
EndSplineSet
EndChar

StartChar: U
Encoding: 85 85 30
Width: 80
Flags: H
LayerCount: 2
Fore
SplineSet
53.3330078125 80 m 1
 80 80 l 1
 80 13.3330078125 l 1
 66.6669921875 13.3330078125 l 1
 66.6669921875 0 l 1
 13.3330078125 0 l 1
 13.3330078125 13.3330078125 l 1
 40 13.3330078125 l 1
 40 26.6669921875 l 1
 53.3330078125 26.6669921875 l 1
 53.3330078125 80 l 1
0 13.3330078125 m 1
 0 80 l 1
 13.3330078125 80 l 1
 13.3330078125 13.3330078125 l 1
 0 13.3330078125 l 1
EndSplineSet
EndChar

StartChar: V
Encoding: 86 86 31
Width: 80
Flags: H
LayerCount: 2
Fore
SplineSet
53.3330078125 80 m 1
 80 80 l 1
 80 26.6669921875 l 1
 66.6669921875 26.6669921875 l 1
 66.6669921875 13.3330078125 l 1
 53.3330078125 13.3330078125 l 1
 53.3330078125 0 l 1
 26.6669921875 0 l 1
 26.6669921875 13.3330078125 l 1
 40 13.3330078125 l 1
 40 26.6669921875 l 1
 53.3330078125 26.6669921875 l 1
 53.3330078125 80 l 1
0 26.6669921875 m 1
 0 80 l 1
 13.3330078125 80 l 1
 13.3330078125 26.6669921875 l 1
 0 26.6669921875 l 1
13.3330078125 13.3330078125 m 1
 13.3330078125 26.6669921875 l 1
 26.6669921875 26.6669921875 l 1
 26.6669921875 13.3330078125 l 1
 13.3330078125 13.3330078125 l 1
EndSplineSet
EndChar

StartChar: W
Encoding: 87 87 32
Width: 80
Flags: H
LayerCount: 2
Fore
SplineSet
53.3330078125 80 m 1
 66.6669921875 80 l 1
 80 80 l 1
 80 0 l 1
 53.3330078125 0 l 1
 53.3330078125 13.3330078125 l 1
 40 13.3330078125 l 1
 40 26.6669921875 l 1
 26.6669921875 26.6669921875 l 1
 26.6669921875 13.3330078125 l 1
 13.3330078125 13.3330078125 l 1
 13.3330078125 0 l 1
 0 0 l 1
 0 80 l 1
 13.3330078125 80 l 1
 13.3330078125 40 l 1
 26.6669921875 40 l 1
 26.6669921875 53.3330078125 l 1
 40 53.3330078125 l 1
 40 40 l 1
 53.3330078125 40 l 1
 53.3330078125 80 l 1
EndSplineSet
EndChar

StartChar: X
Encoding: 88 88 33
Width: 80
Flags: H
LayerCount: 2
Fore
SplineSet
0 66.6669921875 m 1
 0 80 l 1
 13.3330078125 80 l 1
 13.3330078125 66.6669921875 l 1
 0 66.6669921875 l 1
66.6669921875 53.3330078125 m 1
 53.3330078125 53.3330078125 l 1
 53.3330078125 26.6669921875 l 1
 26.6669921875 26.6669921875 l 1
 26.6669921875 13.3330078125 l 1
 13.3330078125 13.3330078125 l 1
 13.3330078125 0 l 1
 0 0 l 1
 0 26.6669921875 l 1
 13.3330078125 26.6669921875 l 1
 13.3330078125 40 l 1
 26.6669921875 40 l 1
 26.6669921875 53.3330078125 l 1
 40 53.3330078125 l 1
 40 66.6669921875 l 1
 53.3330078125 66.6669921875 l 1
 53.3330078125 80 l 1
 80 80 l 1
 80 66.6669921875 l 1
 66.6669921875 66.6669921875 l 1
 66.6669921875 53.3330078125 l 1
13.3330078125 53.3330078125 m 1
 13.3330078125 66.6669921875 l 1
 26.6669921875 66.6669921875 l 1
 26.6669921875 53.3330078125 l 1
 13.3330078125 53.3330078125 l 1
53.3330078125 13.3330078125 m 1
 53.3330078125 26.6669921875 l 1
 66.6669921875 26.6669921875 l 1
 66.6669921875 13.3330078125 l 1
 53.3330078125 13.3330078125 l 1
66.6669921875 0 m 1
 66.6669921875 13.3330078125 l 1
 80 13.3330078125 l 1
 80 0 l 1
 66.6669921875 0 l 1
EndSplineSet
EndChar

StartChar: Y
Encoding: 89 89 34
Width: 80
Flags: H
LayerCount: 2
Fore
SplineSet
53.3330078125 80 m 1
 80 80 l 1
 80 53.3330078125 l 1
 66.6669921875 53.3330078125 l 1
 66.6669921875 40 l 1
 53.3330078125 40 l 1
 53.3330078125 0 l 1
 26.6669921875 0 l 1
 26.6669921875 40 l 1
 13.3330078125 40 l 1
 13.3330078125 53.3330078125 l 1
 0 53.3330078125 l 1
 0 80 l 1
 26.6669921875 80 l 1
 26.6669921875 53.3330078125 l 1
 53.3330078125 53.3330078125 l 1
 53.3330078125 80 l 1
EndSplineSet
EndChar

StartChar: Z
Encoding: 90 90 35
Width: 80
Flags: H
LayerCount: 2
Fore
SplineSet
0 80 m 1
 80 80 l 1
 80 53.3330078125 l 1
 66.6669921875 53.3330078125 l 1
 66.6669921875 40 l 1
 53.3330078125 40 l 1
 53.3330078125 26.6669921875 l 1
 40 26.6669921875 l 1
 40 13.3330078125 l 1
 80 13.3330078125 l 1
 80 0 l 1
 0 0 l 1
 0 26.6669921875 l 1
 13.3330078125 26.6669921875 l 1
 13.3330078125 40 l 1
 26.6669921875 40 l 1
 26.6669921875 53.3330078125 l 1
 40 53.3330078125 l 1
 40 66.6669921875 l 1
 0 66.6669921875 l 1
 0 80 l 1
EndSplineSet
EndChar

StartChar: exclam
Encoding: 33 33 36
Width: 80
Flags: H
LayerCount: 2
Fore
SplineSet
26.6669921875 26.6669921875 m 1
 26.6669921875 80 l 1
 53.3330078125 80 l 1
 53.3330078125 26.6669921875 l 1
 26.6669921875 26.6669921875 l 1
26.6669921875 0 m 1
 26.6669921875 13.3330078125 l 1
 53.3330078125 13.3330078125 l 1
 53.3330078125 0 l 1
 26.6669921875 0 l 1
EndSplineSet
EndChar

StartChar: period
Encoding: 46 46 37
Width: 80
Flags: H
LayerCount: 2
Fore
SplineSet
26.6669921875 0 m 1
 26.6669921875 26.6669921875 l 1
 53.3330078125 26.6669921875 l 1
 53.3330078125 0 l 1
 26.6669921875 0 l 1
EndSplineSet
EndChar

StartChar: question
Encoding: 63 63 38
Width: 80
Flags: H
LayerCount: 2
Fore
SplineSet
66.6669921875 66.6669921875 m 1
 80 66.6669921875 l 1
 80 53.3330078125 l 1
 66.6669921875 53.3330078125 l 1
 66.6669921875 40 l 1
 53.3330078125 40 l 1
 53.3330078125 26.6669921875 l 1
 26.6669921875 26.6669921875 l 1
 26.6669921875 40 l 1
 40 40 l 1
 40 53.3330078125 l 1
 53.3330078125 53.3330078125 l 1
 53.3330078125 66.6669921875 l 1
 26.6669921875 66.6669921875 l 1
 26.6669921875 53.3330078125 l 1
 0 53.3330078125 l 1
 0 66.6669921875 l 1
 13.3330078125 66.6669921875 l 1
 13.3330078125 80 l 1
 66.6669921875 80 l 1
 66.6669921875 66.6669921875 l 1
26.6669921875 0 m 1
 26.6669921875 13.3330078125 l 1
 53.3330078125 13.3330078125 l 1
 53.3330078125 0 l 1
 26.6669921875 0 l 1
EndSplineSet
EndChar

StartChar: colon
Encoding: 58 58 39
Width: 80
Flags: H
LayerCount: 2
Fore
SplineSet
26.6669921875 40 m 1
 26.6669921875 66.6669921875 l 1
 53.3330078125 66.6669921875 l 1
 53.3330078125 40 l 1
 26.6669921875 40 l 1
26.6669921875 0 m 1
 26.6669921875 26.6669921875 l 1
 53.3330078125 26.6669921875 l 1
 53.3330078125 0 l 1
 26.6669921875 0 l 1
EndSplineSet
EndChar

